<svg id="visual" viewBox="0 0 900 600" width="900" height="600" xmlns="http://www.w3.org/2000/svg" xmlns:xlink="http://www.w3.org/1999/xlink" version="1.1"><rect x="0" y="0" width="900" height="600" fill="#dbfe96"></rect><path d="M0 166L30 197.5C60 229 120 292 180 327C240 362 300 369 360 342.7C420 316.3 480 256.7 540 225.2C600 193.7 660 190.3 720 189.8C780 189.3 840 191.7 870 192.8L900 194L900 601L870 601C840 601 780 601 720 601C660 601 600 601 540 601C480 601 420 601 360 601C300 601 240 601 180 601C120 601 60 601 30 601L0 601Z" fill="#fafaff" stroke-linecap="round" stroke-linejoin="miter"></path></svg>