<svg xmlns="http://www.w3.org/2000/svg" xmlns:xlink="http://www.w3.org/1999/xlink" id="visual" viewBox="0 0 960 540" width="960" height="540" version="1.1">
  <g transform="rotate(180 480 270)">
    <rect x="0" y="0" width="960" height="540" fill="#B699F7"/>
    <path d="M0 271L22.8 250.5C45.7 230 91.3 189 137 178.7C182.7 168.3 228.3 188.7 274 208.8C319.7 229 365.3 249 411.2 250C457 251 503 233 548.8 215.7C594.7 198.3 640.3 181.7 686 170.5C731.7 159.3 777.3 153.7 823 165.8C868.7 178 914.3 208 937.2 223L960 238L960 0L937.2 0C914.3 0 868.7 0 823 0C777.3 0 731.7 0 686 0C640.3 0 594.7 0 548.8 0C503 0 457 0 411.2 0C365.3 0 319.7 0 274 0C228.3 0 182.7 0 137 0C91.3 0 45.7 0 22.8 0L0 0Z" fill="#FAFAFF" stroke-linecap="round" stroke-linejoin="miter"/>
  </g>
</svg>
